<svg version="1.1" viewBox="0.0 0.0 960.0 960.0" fill="none" stroke="none" stroke-linecap="square" stroke-miterlimit="10" xmlns:xlink="http://www.w3.org/1999/xlink" xmlns="http://www.w3.org/2000/svg"><clipPath id="p.0"><path d="m0 0l960.0 0l0 960.0l-960.0 0l0 -960.0z" clip-rule="nonzero"/></clipPath><g clip-path="url(#p.0)"><path fill="#ffffff" d="m0 0l960.0 0l0 960.0l-960.0 0z" fill-rule="evenodd"/><path fill="#d76d4c" d="m712.07086 293.99734l-115.007324 71.18109l-122.78793 -71.18109z" fill-rule="evenodd"/><path fill="#d76d4c" d="m1303.115 710.36646l-92.28345 53.259888l61.606323 -106.42523z" fill-rule="evenodd"/><path fill="#d76d4c" d="m1303.1155 709.8078l-130.8031 226.48816l-45.88977 -26.48816l130.8031 -226.48822z" fill-rule="evenodd"/><path fill="#d76d4c" d="m1076.6584 876.9358l-0.03149414 -106.55121l61.417236 106.519714z" fill-rule="evenodd"/><path fill="#d76d4c" d="m1077.0687 877.2551l-34.519653 -59.77948l45.88977 -26.456726l34.519653 59.77954z" fill-rule="evenodd"/><path fill="#d76d4c" d="m1041.9028 816.7607l92.28345 53.259888l-61.57483 -106.39374z" fill-rule="evenodd"/><path fill="#d76d4c" d="m1389.1313 347.99976l-226.45667 130.86615l-56.944824 -98.64569l226.45667 -130.86613z" fill-rule="evenodd"/><path fill="#d76d4c" d="m1306.3549 475.1211l90.30261 -52.107056l-59.86316 104.76813z" fill-rule="evenodd"/><path fill="#d76d4c" d="m1351.7361 501.1403l48.59839 -84.14694l-45.458984 -26.222809l-48.59839 84.14691z" fill-rule="evenodd"/><path fill="#d76d4c" d="m1400.3352 416.97595l-90.30249 52.137848l59.86316 -104.79892z" fill-rule="evenodd"/><defs><linearGradient id="p.1" gradientUnits="userSpaceOnUse" gradientTransform="matrix(-14.624535035921422 -0.009585144792045098 0.009585144792045098 -14.624535035921422 0.0 0.0)" spreadMethod="pad" x1="-86.55281501423696" y1="-39.33973239647777" x2="-72.81041771746654" y2="-34.33737879496074"><stop offset="0.0" stop-color="#c46446"/><stop offset="0.66" stop-color="#c46446" stop-opacity="0.0"/><stop offset="0.6600001" stop-color="#d76d4c" stop-opacity="0.0"/><stop offset="1.0" stop-color="#d76d4c" stop-opacity="0.0"/></linearGradient></defs><path fill="url(#p.1)" d="m1234.1233 564.7403l-56.992065 97.34845l-135.2284 -0.08862305l56.992188 -97.34845z" fill-rule="evenodd"/><path fill="#d76d4c" d="m-185.97714 444.6526l-41.480316 -71.84253l56.56694 -32.59842l41.480316 71.84253z" fill-rule="evenodd"/><path fill="#d76d4c" d="m-216.47127 392.46466l92.28347 -53.259827l-122.960625 0.09448242z" fill-rule="evenodd"/><path fill="#d76d4c" d="m-216.96324 392.25986l97.984245 0l-0.03149414 -52.97638l-97.984245 0z" fill-rule="evenodd"/><path fill="#d76d4c" d="m-393.24423 338.83728l134.17322 232.44098l-45.88977 26.48816l-134.17322 -232.44095z" fill-rule="evenodd"/><path fill="#d76d4c" d="m-393.30673 338.83334l0 106.55118l-61.385834 -106.55118z" fill-rule="evenodd"/><path fill="#d76d4c" d="m-132.85158 339.1563l0 106.55118l61.385826 -106.55118z" fill-rule="evenodd"/><path fill="#d76d4c" d="m-323.44095 565.79913l60.724426 104.66144l60.724396 -104.66144z" fill-rule="evenodd"/><path fill="#d76d4c" d="m-132.40959 338.83466l-131.84251 228.40942l45.889755 26.48822l131.84253 -228.40945z" fill-rule="evenodd"/><defs><linearGradient id="p.2" gradientUnits="userSpaceOnUse" gradientTransform="matrix(6.045430257091998 -10.458924695592945 10.458924695592945 6.045430257091998 0.0 0.0)" spreadMethod="pad" x1="-55.36888856437041" y1="8.435529209001453" x2="-45.54083636242972" y2="12.013027735068643"><stop offset="0.0" stop-color="#c46446"/><stop offset="0.66" stop-color="#c46446" stop-opacity="0.0"/><stop offset="0.6600001" stop-color="#d76d4c" stop-opacity="0.0"/><stop offset="1.0" stop-color="#d76d4c" stop-opacity="0.0"/></linearGradient></defs><path fill="url(#p.2)" d="m-232.60098 618.44354l-30.391052 -53.387756l42.10759 -72.84845l30.391083 53.387756z" fill-rule="evenodd"/><defs><linearGradient id="p.3" gradientUnits="userSpaceOnUse" gradientTransform="matrix(-11.91580790806441 -0.003265499718828891 0.003265499718828891 -11.91580790806441 0.0 0.0)" spreadMethod="pad" x1="8.407993851523408" y1="-29.444249492173817" x2="19.605051054706045" y2="-25.36841974958812"><stop offset="0.0" stop-color="#b85e42"/><stop offset="0.66" stop-color="#b85e42" stop-opacity="0.0"/><stop offset="0.6600001" stop-color="#d76d4c" stop-opacity="0.0"/><stop offset="1.0" stop-color="#d76d4c" stop-opacity="0.0"/></linearGradient></defs><path fill="url(#p.3)" d="m-132.22052 339.1895l-57.46457 99.35434l-57.46457 -99.38583z" fill-rule="evenodd"/><defs><linearGradient id="p.4" gradientUnits="userSpaceOnUse" gradientTransform="matrix(-11.91580801801622 -0.0032654997490932243 0.0032654997490932243 -11.91580801801622 0.0 0.0)" spreadMethod="pad" x1="-98.33693710396264" y1="-15.58436045722436" x2="-87.13987914367753" y2="-11.50853247309209"><stop offset="0.0" stop-color="#b85e42"/><stop offset="0.66" stop-color="#b85e42" stop-opacity="0.0"/><stop offset="0.6600001" stop-color="#d76d4c" stop-opacity="0.0"/><stop offset="1.0" stop-color="#d76d4c" stop-opacity="0.0"/></linearGradient></defs><path fill="url(#p.4)" d="m1139.7769 174.38637l-57.4646 99.354324l-57.464478 -99.38582z" fill-rule="evenodd"/><path fill="#d76d4c" d="m1156.8254 -177.87929l-85.1969 147.59056l45.88977 26.48819l85.1969 -147.59056z" fill-rule="evenodd"/><path fill="#d76d4c" d="m987.3204 -178.8845l89.102356 154.39369l-45.88977 26.488188l-89.102356 -154.39369z" fill-rule="evenodd"/><path fill="#d76d4c" d="m987.25757 -178.88846l0 106.551186l-61.385803 -106.551186z" fill-rule="evenodd"/><path fill="#d76d4c" d="m1011.626 -30.73622l60.724365 106.89764l60.724487 -106.89764z" fill-rule="evenodd"/><defs><linearGradient id="p.5" gradientUnits="userSpaceOnUse" gradientTransform="matrix(6.045428915923645 -10.458922374767194 10.458922374767194 6.045428915923645 0.0 0.0)" spreadMethod="pad" x1="42.71036903210348" y1="79.44040096952831" x2="52.538420019961315" y2="83.01789604590124"><stop offset="0.0" stop-color="#c46446"/><stop offset="0.66" stop-color="#c46446" stop-opacity="0.0"/><stop offset="0.6600001" stop-color="#d76d4c" stop-opacity="0.0"/><stop offset="1.0" stop-color="#d76d4c" stop-opacity="0.0"/></linearGradient></defs><path fill="url(#p.5)" d="m1102.9646 21.895006l-30.390991 -53.387753l42.107544 -72.84847l30.391113 53.387756z" fill-rule="evenodd"/><path fill="#d76d4c" d="m1124.1263 -178.38705l-104.25195 0l104.22046 60.818893z" fill-rule="evenodd"/><path fill="#d76d4c" d="m1123.5144 -117.58793l46.58264 0l-0.03149414 -60.850395l-46.58264 0z" fill-rule="evenodd"/><path fill="#d76d4c" d="m1157.2114 -178.56549l0 106.551186l61.385864 -106.551186z" fill-rule="evenodd"/><defs><linearGradient id="p.6" gradientUnits="userSpaceOnUse" gradientTransform="matrix(6.11209344628203 -10.590591009271234 10.590591009271234 6.11209344628203 0.0 0.0)" spreadMethod="pad" x1="61.624126639485624" y1="74.38958105143263" x2="59.785548268381305" y2="63.959804088382846"><stop offset="0.0" stop-color="#b85e42"/><stop offset="0.66" stop-color="#b85e42" stop-opacity="0.0"/><stop offset="0.6600001" stop-color="#d76d4c" stop-opacity="0.0"/><stop offset="1.0" stop-color="#d76d4c" stop-opacity="0.0"/></linearGradient></defs><path fill="url(#p.6)" d="m1122.7566 -118.469124l-103.30713 -59.622047l137.95276 -0.40945435z" fill-rule="evenodd"/><path fill="#d76d4c" d="m566.8838 1292.7454l-39.68506 -68.724365l54.11029 -31.181152l39.684998 68.724365z" fill-rule="evenodd"/><path fill="#d76d4c" d="m537.7157 1242.3214l88.28345 -50.960693l-117.63776 0.09448242z" fill-rule="evenodd"/><path fill="#d76d4c" d="m539.1424 1241.0892l91.84253 0l-0.03149414 -49.637817l-91.84253 0z" fill-rule="evenodd"/><path fill="#d76d4c" d="m617.7103 1191.3019l0 101.95276l58.740173 -101.95276z" fill-rule="evenodd"/><defs><linearGradient id="p.7" gradientUnits="userSpaceOnUse" gradientTransform="matrix(-11.764426805312274 -0.0033074015643985615 0.0033074015643985615 -11.764426805312274 0.0 0.0)" spreadMethod="pad" x1="-55.409149922647615" y1="-102.21410493875482" x2="-44.354342518684476" y2="-98.19005581892144"><stop offset="0.0" stop-color="#b85e42"/><stop offset="0.66" stop-color="#b85e42" stop-opacity="0.0"/><stop offset="0.6600001" stop-color="#d76d4c" stop-opacity="0.0"/><stop offset="1.0" stop-color="#d76d4c" stop-opacity="0.0"/></linearGradient></defs><path fill="url(#p.7)" d="m620.3924 1191.3334l-56.015747 96.834595l-56.015778 -96.86609z" fill-rule="evenodd"/><path fill="#d76d4c" d="m619.4698 1192.21l-85.19684 147.59058l45.88977 26.48816l85.19684 -147.59058z" fill-rule="evenodd"/><path fill="#d76d4c" d="m449.96475 1191.2047l89.10239 154.39368l-45.8898 26.488281l-89.102356 -154.3938z" fill-rule="evenodd"/><path fill="#d76d4c" d="m449.90195 1191.2008l0 106.55115l-61.385834 -106.55115z" fill-rule="evenodd"/><path fill="#d76d4c" d="m474.27036 1339.353l60.724396 106.89758l60.724426 -106.89758z" fill-rule="evenodd"/><defs><linearGradient id="p.8" gradientUnits="userSpaceOnUse" gradientTransform="matrix(6.045431429824461 -10.458926726277326 10.458926726277326 6.045431429824461 0.0 0.0)" spreadMethod="pad" x1="-77.74083288387865" y1="97.68542295058613" x2="-67.9127791949184" y2="101.26292332830141"><stop offset="0.0" stop-color="#c46446"/><stop offset="0.66" stop-color="#c46446" stop-opacity="0.0"/><stop offset="0.6600001" stop-color="#d76d4c" stop-opacity="0.0"/><stop offset="1.0" stop-color="#d76d4c" stop-opacity="0.0"/></linearGradient></defs><path fill="url(#p.8)" d="m565.609 1391.9843l-30.391113 -53.387817l42.107666 -72.84839l30.391052 53.387695z" fill-rule="evenodd"/><path fill="#d76d4c" d="m619.8558 1191.5238l0 106.55115l61.385803 -106.55115z" fill-rule="evenodd"/><path fill="#d76d4c" d="m614.1213 295.39133l-135.08658 234.01572l72.75589 42.015747l135.08661 -234.01572z" fill-rule="evenodd"/><path fill="#d76d4c" d="m345.35126 293.79742l141.29132 244.81891l-72.75589 42.015747l-141.29135 -244.81891z" fill-rule="evenodd"/><path fill="#d76d4c" d="m345.25165 293.79617l0 168.94489l-97.32283 -168.94489z" fill-rule="evenodd"/><path fill="#d76d4c" d="m383.8906 528.692l96.28348 169.51184l96.28345 -169.51184z" fill-rule="evenodd"/><defs><linearGradient id="p.9" gradientUnits="userSpaceOnUse" gradientTransform="matrix(7.613212970245409 -13.169651658416797 13.169651658416797 7.613212970245409 0.0 0.0)" spreadMethod="pad" x1="-19.220811729499847" y1="49.5846347359001" x2="-6.845541306935059" y2="54.08934413523248"><stop offset="0.0" stop-color="#c46446"/><stop offset="0.66" stop-color="#c46446" stop-opacity="0.0"/><stop offset="0.6600001" stop-color="#d76d4c" stop-opacity="0.0"/><stop offset="1.0" stop-color="#d76d4c" stop-opacity="0.0"/></linearGradient></defs><path fill="url(#p.9)" d="m528.7241 612.15485l-48.190765 -84.650024l66.77341 -115.50745l48.190735 84.650055z" fill-rule="evenodd"/><path fill="#d76d4c" d="m452.42422 -149.16272l-64.81888 0l64.787384 60.8189z" fill-rule="evenodd"/><path fill="#d76d4c" d="m422.16296 -30.733923l38.771637 0l-0.03149414 -59.055115l-38.771637 0z" fill-rule="evenodd"/><path fill="#d76d4c" d="m614.7323 294.30707l0 169.51181l97.63776 -169.51181z" fill-rule="evenodd"/><defs><linearGradient id="p.10" gradientUnits="userSpaceOnUse" gradientTransform="matrix(5.676433918437646 -9.83955089159459 9.83955089159459 5.676433918437646 0.0 0.0)" spreadMethod="pad" x1="29.714174037429657" y1="8.083941432092649" x2="28.005980089931295" y2="-1.6061997013485874"><stop offset="0.0" stop-color="#b85e42"/><stop offset="0.66" stop-color="#b85e42" stop-opacity="0.0"/><stop offset="0.6600001" stop-color="#d76d4c" stop-opacity="0.0"/><stop offset="1.0" stop-color="#d76d4c" stop-opacity="0.0"/></linearGradient></defs><path fill="url(#p.10)" d="m212.21516 -177.87828l-89.16535 -51.46457l119.05512 -0.34646606z" fill-rule="evenodd"/><defs><linearGradient id="p.11" gradientUnits="userSpaceOnUse" gradientTransform="matrix(-9.899662726497404 -0.0036530119838062286 0.0036530119838062286 -9.899662726497404 0.0 0.0)" spreadMethod="pad" x1="-39.10468678456258" y1="19.063369776030726" x2="-29.802162063110902" y2="22.44957058300931"><stop offset="0.0" stop-color="#b85e42"/><stop offset="0.66" stop-color="#b85e42" stop-opacity="0.0"/><stop offset="0.6600001" stop-color="#d76d4c" stop-opacity="0.0"/><stop offset="1.0" stop-color="#d76d4c" stop-opacity="0.0"/></linearGradient></defs><path fill="url(#p.11)" d="m370.47113 -194.67192l-29.881714 52.020477l-55.472626 -52.05197z" fill-rule="evenodd"/><path fill="#d76d4c" d="m667.0064 404.9134l51.118103 -88.566925l33.480286 137.5433z" fill-rule="evenodd"/><defs><linearGradient id="p.12" gradientUnits="userSpaceOnUse" gradientTransform="matrix(10.471859422530395 6.058132773417594 -6.058132773417594 10.471859422530395 0.0 0.0)" spreadMethod="pad" x1="61.770106931317486" y1="0.37013720822214885" x2="71.61031422285181" y2="3.9520585117788536"><stop offset="0.0" stop-color="#c46446"/><stop offset="0.66" stop-color="#c46446" stop-opacity="0.0"/><stop offset="0.6600001" stop-color="#d76d4c" stop-opacity="0.0"/><stop offset="1.0" stop-color="#d76d4c" stop-opacity="0.0"/></linearGradient></defs><path fill="url(#p.12)" d="m667.11597 404.91345l51.055115 -88.44095l33.385803 137.29135z" fill-rule="evenodd"/><path fill="#d76d4c" d="m1303.1155 678.54535l-130.8031 226.48816l-45.88977 -26.48816l130.8031 -226.48822z" fill-rule="evenodd"/><path fill="#d76d4c" d="m1076.6584 845.6733l-0.03149414 -106.55115l61.417236 106.51965z" fill-rule="evenodd"/><path fill="#d76d4c" d="m1077.0687 845.9927l-34.519653 -59.77954l45.88977 -26.456665l34.519653 59.77954z" fill-rule="evenodd"/><path fill="#d76d4c" d="m1041.9028 785.4982l92.28345 53.259827l-61.57483 -106.39368z" fill-rule="evenodd"/><path fill="#000000" d="m-305.3701 145.4147l0 0c0 -33.04142 26.651398 -59.826775 59.527573 -59.826775c32.87616 0 59.527557 26.785355 59.527557 59.826775c0 33.041412 -26.651398 59.826767 -59.527557 59.826767c-32.876175 0 -59.527573 -26.785355 -59.527573 -59.826767z" fill-rule="evenodd"/><path fill="#000000" d="m-271.11417 127.522064c0 -3.4418182 2.776184 -6.2319565 6.200775 -6.2319565c3.424591 0 6.2008057 2.7901382 6.2008057 6.2319565c0 3.4418182 -2.7762146 6.231949 -6.2008057 6.231949c-3.424591 0 -6.200775 -2.7901306 -6.200775 -6.231949m38.141724 0c0 -3.4418182 2.776184 -6.2319565 6.2007904 -6.2319565c3.4246063 0 6.2007904 2.7901382 6.2007904 6.2319565c0 3.4418182 -2.776184 6.231949 -6.2007904 6.231949c-3.4246063 0 -6.2007904 -2.7901306 -6.2007904 -6.231949" fill-rule="evenodd"/><path fill="#000000" fill-opacity="0.0" d="m-278.10684 171.50555q32.264328 22.269913 64.45329 0" fill-rule="evenodd"/><path fill="#000000" fill-opacity="0.0" d="m-305.3701 145.4147l0 0c0 -33.04142 26.651398 -59.826775 59.527573 -59.826775c32.87616 0 59.527557 26.785355 59.527557 59.826775c0 33.041412 -26.651398 59.826767 -59.527557 59.826767c-32.876175 0 -59.527573 -26.785355 -59.527573 -59.826767z" fill-rule="evenodd"/><path stroke="#ffffff" stroke-width="1.0" stroke-linejoin="round" stroke-linecap="butt" d="m-271.11417 127.522064c0 -3.4418182 2.776184 -6.2319565 6.200775 -6.2319565c3.424591 0 6.2008057 2.7901382 6.2008057 6.2319565c0 3.4418182 -2.7762146 6.231949 -6.2008057 6.231949c-3.424591 0 -6.200775 -2.7901306 -6.200775 -6.231949m38.141724 0c0 -3.4418182 2.776184 -6.2319565 6.2007904 -6.2319565c3.4246063 0 6.2007904 2.7901382 6.2007904 6.2319565c0 3.4418182 -2.776184 6.231949 -6.2007904 6.231949c-3.4246063 0 -6.2007904 -2.7901306 -6.2007904 -6.231949" fill-rule="evenodd"/><path stroke="#ffffff" stroke-width="1.0" stroke-linejoin="round" stroke-linecap="butt" d="m-278.10684 171.50555q32.264328 22.269913 64.45329 0" fill-rule="evenodd"/><path stroke="#ffffff" stroke-width="1.0" stroke-linejoin="round" stroke-linecap="butt" d="m-305.3701 145.4147l0 0c0 -33.04142 26.651398 -59.826775 59.527573 -59.826775c32.87616 0 59.527557 26.785355 59.527557 59.826775c0 33.041412 -26.651398 59.826767 -59.527557 59.826767c-32.876175 0 -59.527573 -26.785355 -59.527573 -59.826767z" fill-rule="evenodd"/><defs><linearGradient id="p.13" gradientUnits="userSpaceOnUse" gradientTransform="matrix(-12.484030923691884 -0.005476653440064125 0.005476653440064125 -12.484030923691884 0.0 0.0)" spreadMethod="pad" x1="-51.07616486054724" y1="-24.10812583956334" x2="-39.34515898047581" y2="-19.83793507738129"><stop offset="0.0" stop-color="#b85e42"/><stop offset="0.66" stop-color="#b85e42" stop-opacity="0.0"/><stop offset="0.6600001" stop-color="#d76d4c" stop-opacity="0.0"/><stop offset="1.0" stop-color="#d76d4c" stop-opacity="0.0"/></linearGradient></defs><path fill="url(#p.13)" d="m617.8478 294.08136l-38.107483 61.14865l-105.48306 -61.21164z" fill-rule="evenodd"/></g></svg>